<mxfile host="app.diagrams.net" agent="Mozilla/5.0 (X11; Linux x86_64) AppleWebKit/537.36 (KHTML, like Gecko) Chrome/136.0.0.0 Safari/537.36" version="26.3.0">
  <diagram name="Pàgina-1" id="mhbHxmUa4zc_a_H4eHv1">
    <mxGraphModel dx="2066" dy="1119" grid="1" gridSize="10" guides="1" tooltips="1" connect="1" arrows="1" fold="1" page="1" pageScale="1" pageWidth="827" pageHeight="1169" math="0" shadow="0">
      <root>
        <mxCell id="0" />
        <mxCell id="1" parent="0" />
        <mxCell id="nmTJw0l1gP9_YWdhC2ua-1" style="rounded=0;orthogonalLoop=1;jettySize=auto;html=1;exitX=0.5;exitY=1;exitDx=0;exitDy=0;fillColor=#d5e8d4;strokeColor=#82b366;" parent="1" source="nmTJw0l1gP9_YWdhC2ua-2" target="nmTJw0l1gP9_YWdhC2ua-5" edge="1">
          <mxGeometry relative="1" as="geometry">
            <mxPoint x="976.6666666666665" y="727.5" as="targetPoint" />
          </mxGeometry>
        </mxCell>
        <mxCell id="nmTJw0l1gP9_YWdhC2ua-2" value="main" style="ellipse;whiteSpace=wrap;html=1;fillColor=#d5e8d4;strokeColor=#82b366;fontSize=16;fontStyle=1" parent="1" vertex="1">
          <mxGeometry x="950" y="647.5" width="100" height="40" as="geometry" />
        </mxCell>
        <mxCell id="nmTJw0l1gP9_YWdhC2ua-3" value="neteja" style="ellipse;whiteSpace=wrap;html=1;fillColor=#f8cecc;strokeColor=#b85450;fontSize=16;fontStyle=1;opacity=50;textOpacity=50;dashed=1;" parent="1" vertex="1">
          <mxGeometry x="1100" y="530" width="100" height="40" as="geometry" />
        </mxCell>
        <mxCell id="nmTJw0l1gP9_YWdhC2ua-4" style="rounded=0;orthogonalLoop=1;jettySize=auto;html=1;fillColor=#f8cecc;strokeColor=#b85450;opacity=50;textOpacity=50;dashed=1;" parent="1" source="nmTJw0l1gP9_YWdhC2ua-3" target="nmTJw0l1gP9_YWdhC2ua-31" edge="1">
          <mxGeometry relative="1" as="geometry">
            <mxPoint x="800" y="767" as="sourcePoint" />
            <mxPoint x="877.5" y="715" as="targetPoint" />
          </mxGeometry>
        </mxCell>
        <mxCell id="nmTJw0l1gP9_YWdhC2ua-5" value="&lt;i style=&quot;font-size: 16px;&quot;&gt;&lt;font style=&quot;font-size: 12px;&quot;&gt;Commit inicial&lt;/font&gt;&lt;/i&gt;" style="ellipse;whiteSpace=wrap;html=1;fillColor=#f5f5f5;fontColor=#333333;strokeColor=#666666;" parent="1" vertex="1">
          <mxGeometry x="970" y="717.5" width="60" height="60" as="geometry" />
        </mxCell>
        <mxCell id="nmTJw0l1gP9_YWdhC2ua-6" value="&lt;i&gt;Local - Entorn de desenvolupament&lt;/i&gt;" style="rounded=1;whiteSpace=wrap;html=1;verticalAlign=bottom;labelPosition=center;verticalLabelPosition=top;align=center;textDirection=ltr;labelBackgroundColor=none;spacingTop=0;spacing=2;fontSize=16;fillColor=#dae8fc;strokeColor=#6c8ebf;" parent="1" vertex="1">
          <mxGeometry x="860" y="190" width="550" height="260" as="geometry" />
        </mxCell>
        <mxCell id="nmTJw0l1gP9_YWdhC2ua-7" value="" style="sketch=0;aspect=fixed;pointerEvents=1;shadow=0;dashed=0;html=1;strokeColor=none;labelPosition=center;verticalLabelPosition=bottom;verticalAlign=top;align=center;fillColor=#00188D;shape=mxgraph.azure.computer" parent="1" vertex="1">
          <mxGeometry x="790" y="248.13" width="50" height="45" as="geometry" />
        </mxCell>
        <mxCell id="nmTJw0l1gP9_YWdhC2ua-8" value="" style="rounded=1;whiteSpace=wrap;html=1;fontSize=20;fillColor=#d5e8d4;strokeColor=#82b366;" parent="1" vertex="1">
          <mxGeometry x="1160" y="210.63" width="230" height="139.37" as="geometry" />
        </mxCell>
        <mxCell id="nmTJw0l1gP9_YWdhC2ua-9" value="&lt;b&gt;Repositori local&lt;/b&gt;&lt;i&gt;&lt;br&gt;Local Repository&lt;/i&gt;" style="rounded=1;whiteSpace=wrap;html=1;fontSize=20;fillColor=#d5e8d4;strokeColor=#82b366;" parent="1" vertex="1">
          <mxGeometry x="1160" y="210" width="120" height="140" as="geometry" />
        </mxCell>
        <mxCell id="nmTJw0l1gP9_YWdhC2ua-10" value="&lt;b style=&quot;border-color: var(--border-color); font-size: 18px;&quot;&gt;Àrea de preparació&lt;/b&gt;&lt;br style=&quot;border-color: var(--border-color); font-size: 18px;&quot;&gt;&lt;i style=&quot;border-color: var(--border-color); font-size: 18px;&quot;&gt;Staging Area&lt;/i&gt;" style="rounded=1;whiteSpace=wrap;html=1;fontSize=20;fillColor=#d5e8d4;strokeColor=#82b366;" parent="1" vertex="1">
          <mxGeometry x="1020" y="210.63" width="120" height="139.37" as="geometry" />
        </mxCell>
        <mxCell id="nmTJw0l1gP9_YWdhC2ua-11" value="&lt;b style=&quot;border-color: var(--border-color); font-size: 18px;&quot;&gt;Directori de treball&lt;/b&gt;&lt;br style=&quot;border-color: var(--border-color); font-size: 18px;&quot;&gt;&lt;i style=&quot;border-color: var(--border-color); font-size: 18px;&quot;&gt;Working directory&lt;/i&gt;" style="rounded=1;whiteSpace=wrap;html=1;fontSize=20;fillColor=#d5e8d4;strokeColor=#82b366;" parent="1" vertex="1">
          <mxGeometry x="880" y="210.63" width="120" height="139.37" as="geometry" />
        </mxCell>
        <mxCell id="nmTJw0l1gP9_YWdhC2ua-12" value="" style="shape=image;imageAspect=0;aspect=fixed;verticalLabelPosition=bottom;verticalAlign=top;image=https://cdn0.iconfinder.com/data/icons/folder-line/512/folder_tree-512.png;" parent="1" vertex="1">
          <mxGeometry x="905" y="360" width="70" height="70" as="geometry" />
        </mxCell>
        <mxCell id="nmTJw0l1gP9_YWdhC2ua-13" value="" style="shape=image;imageAspect=0;aspect=fixed;verticalLabelPosition=bottom;verticalAlign=top;image=https://cdn.icon-icons.com/icons2/2718/PNG/512/git_branch_icon_174485.png;" parent="1" vertex="1">
          <mxGeometry x="1239.5" y="360" width="71" height="71" as="geometry" />
        </mxCell>
        <mxCell id="nmTJw0l1gP9_YWdhC2ua-14" value="&lt;b style=&quot;font-style: italic; font-size: 16px;&quot;&gt;Branques locals&lt;/b&gt;&lt;br style=&quot;font-size: 16px;&quot;&gt;&lt;div style=&quot;font-style: italic; text-align: left;&quot;&gt;&lt;span style=&quot;background-color: initial;&quot;&gt;-&amp;nbsp;&lt;/span&gt;&lt;b style=&quot;background-color: initial;&quot;&gt;&lt;font color=&quot;#0066cc&quot;&gt;*&lt;/font&gt;&lt;/b&gt;&lt;b style=&quot;background-color: initial;&quot;&gt;main&lt;/b&gt;&lt;/div&gt;&lt;div style=&quot;text-align: left;&quot;&gt;&lt;span style=&quot;background-color: initial;&quot;&gt;&lt;i&gt;- menjar&lt;/i&gt;&lt;/span&gt;&lt;/div&gt;&lt;div style=&quot;font-style: italic; text-align: left;&quot;&gt;&lt;span style=&quot;background-color: initial;&quot;&gt;- beguda&lt;/span&gt;&lt;/div&gt;&lt;div style=&quot;font-style: italic; text-align: left;&quot;&gt;&lt;b&gt;&lt;strike&gt;&lt;font color=&quot;#ff6666&quot;&gt;&lt;span style=&quot;background-color: initial;&quot;&gt;-&amp;nbsp;&lt;/span&gt;&lt;span style=&quot;background-color: initial;&quot;&gt;neteja&lt;/span&gt;&lt;/font&gt;&lt;/strike&gt;&lt;/b&gt;&lt;/div&gt;" style="rounded=1;whiteSpace=wrap;html=1;fontSize=16;fillColor=#d5e8d4;strokeColor=#82b366;verticalAlign=top;spacingLeft=5;" parent="1" vertex="1">
          <mxGeometry x="1280" y="210" width="110" height="140" as="geometry" />
        </mxCell>
        <mxCell id="nmTJw0l1gP9_YWdhC2ua-15" style="rounded=0;orthogonalLoop=1;jettySize=auto;html=1;" parent="1" source="nmTJw0l1gP9_YWdhC2ua-16" target="nmTJw0l1gP9_YWdhC2ua-5" edge="1">
          <mxGeometry relative="1" as="geometry" />
        </mxCell>
        <mxCell id="nmTJw0l1gP9_YWdhC2ua-16" value="&lt;i style=&quot;font-size: 16px;&quot;&gt;&lt;font style=&quot;font-size: 12px;&quot;&gt;Menjar&lt;/font&gt;&lt;/i&gt;" style="ellipse;whiteSpace=wrap;html=1;fillColor=#f5f5f5;fontColor=#333333;strokeColor=#666666;" parent="1" vertex="1">
          <mxGeometry x="1125" y="847.5" width="60" height="60" as="geometry" />
        </mxCell>
        <mxCell id="nmTJw0l1gP9_YWdhC2ua-17" style="rounded=0;orthogonalLoop=1;jettySize=auto;html=1;exitX=0.5;exitY=1;exitDx=0;exitDy=0;fillColor=#dae8fc;strokeColor=#6c8ebf;" parent="1" source="nmTJw0l1gP9_YWdhC2ua-18" target="nmTJw0l1gP9_YWdhC2ua-16" edge="1">
          <mxGeometry relative="1" as="geometry">
            <mxPoint x="1108" y="857.5" as="targetPoint" />
          </mxGeometry>
        </mxCell>
        <mxCell id="nmTJw0l1gP9_YWdhC2ua-18" value="menjar" style="ellipse;whiteSpace=wrap;html=1;fillColor=#dae8fc;strokeColor=#6c8ebf;fontSize=16;fontStyle=1" parent="1" vertex="1">
          <mxGeometry x="1105" y="777.5" width="100" height="40" as="geometry" />
        </mxCell>
        <mxCell id="nmTJw0l1gP9_YWdhC2ua-26" value="&lt;i style=&quot;font-size: 16px;&quot;&gt;&lt;font style=&quot;font-size: 12px;&quot;&gt;Beguda&lt;/font&gt;&lt;/i&gt;" style="ellipse;whiteSpace=wrap;html=1;fillColor=#f5f5f5;fontColor=#333333;strokeColor=#666666;" parent="1" vertex="1">
          <mxGeometry x="1240" y="717.5" width="60" height="60" as="geometry" />
        </mxCell>
        <mxCell id="nmTJw0l1gP9_YWdhC2ua-27" style="rounded=0;orthogonalLoop=1;jettySize=auto;html=1;exitX=0.5;exitY=1;exitDx=0;exitDy=0;fillColor=#dae8fc;strokeColor=#6c8ebf;" parent="1" source="nmTJw0l1gP9_YWdhC2ua-28" target="nmTJw0l1gP9_YWdhC2ua-26" edge="1">
          <mxGeometry relative="1" as="geometry">
            <mxPoint x="1223" y="727.5" as="targetPoint" />
          </mxGeometry>
        </mxCell>
        <mxCell id="nmTJw0l1gP9_YWdhC2ua-28" value="beguda" style="ellipse;whiteSpace=wrap;html=1;fillColor=#dae8fc;strokeColor=#6c8ebf;fontSize=16;fontStyle=1" parent="1" vertex="1">
          <mxGeometry x="1220" y="647.5" width="100" height="40" as="geometry" />
        </mxCell>
        <mxCell id="nmTJw0l1gP9_YWdhC2ua-29" style="rounded=0;orthogonalLoop=1;jettySize=auto;html=1;" parent="1" source="nmTJw0l1gP9_YWdhC2ua-26" target="nmTJw0l1gP9_YWdhC2ua-5" edge="1">
          <mxGeometry relative="1" as="geometry">
            <mxPoint x="1179" y="593.5" as="sourcePoint" />
            <mxPoint x="1031" y="736.5" as="targetPoint" />
          </mxGeometry>
        </mxCell>
        <mxCell id="nmTJw0l1gP9_YWdhC2ua-30" style="rounded=0;orthogonalLoop=1;jettySize=auto;html=1;opacity=50;textOpacity=50;dashed=1;" parent="1" source="nmTJw0l1gP9_YWdhC2ua-31" target="nmTJw0l1gP9_YWdhC2ua-5" edge="1">
          <mxGeometry relative="1" as="geometry" />
        </mxCell>
        <mxCell id="nmTJw0l1gP9_YWdhC2ua-31" value="&lt;i style=&quot;font-size: 16px;&quot;&gt;&lt;font style=&quot;font-size: 12px;&quot;&gt;Neteja&lt;/font&gt;&lt;/i&gt;" style="ellipse;whiteSpace=wrap;html=1;fillColor=#f5f5f5;fontColor=#333333;strokeColor=#666666;opacity=50;textOpacity=50;dashed=1;" parent="1" vertex="1">
          <mxGeometry x="1120" y="605" width="60" height="60" as="geometry" />
        </mxCell>
        <mxCell id="nmTJw0l1gP9_YWdhC2ua-32" style="edgeStyle=orthogonalEdgeStyle;rounded=0;orthogonalLoop=1;jettySize=auto;html=1;exitX=0.5;exitY=1;exitDx=0;exitDy=0;fillColor=#f5f5f5;strokeColor=#666666;" parent="1" source="nmTJw0l1gP9_YWdhC2ua-33" target="nmTJw0l1gP9_YWdhC2ua-2" edge="1">
          <mxGeometry relative="1" as="geometry">
            <mxPoint x="1000" y="647.5" as="targetPoint" />
          </mxGeometry>
        </mxCell>
        <mxCell id="nmTJw0l1gP9_YWdhC2ua-33" value="HEAD" style="ellipse;whiteSpace=wrap;html=1;fillColor=#f5f5f5;strokeColor=#666666;fontSize=16;fontStyle=1;fontColor=#333333;" parent="1" vertex="1">
          <mxGeometry x="950" y="577.5" width="100" height="40" as="geometry" />
        </mxCell>
        <mxCell id="6ircnr72NaXdrcKkUp-P-1" value="git branch -D neteja" style="text;html=1;align=center;verticalAlign=middle;whiteSpace=wrap;rounded=0;fontStyle=1;fontSize=20;fontColor=#97D077;" vertex="1" parent="1">
          <mxGeometry x="1030" y="480" width="240" height="30" as="geometry" />
        </mxCell>
      </root>
    </mxGraphModel>
  </diagram>
</mxfile>
